Coordinates
version=1
nRows=8
nColumns=40
inDegrees=yes

Units are S.I. units (second, meters, Newtons, ...)
If the header above contains a line with 'inDegrees', this indicates whether rotational values are in degrees (yes) or radians (no).

endheader
time	pelvis_tilt	pelvis_list	pelvis_rotation	pelvis_tx	pelvis_ty	pelvis_tz	hip_flexion_r	hip_adduction_r	hip_rotation_r	knee_angle_r	knee_angle_r_beta	ankle_angle_r	subtalar_angle_r	mtp_angle_r	hip_flexion_l	hip_adduction_l	hip_rotation_l	knee_angle_l	knee_angle_l_beta	ankle_angle_l	subtalar_angle_l	mtp_angle_l	lumbar_extension	lumbar_bending	lumbar_rotation	arm_flex_r	arm_add_r	arm_rot_r	elbow_flex_r	pro_sup_r	wrist_flex_r	wrist_dev_r	arm_flex_l	arm_add_l	arm_rot_l	elbow_flex_l	pro_sup_l	wrist_flex_l	wrist_dev_l
      5.36000000000000031974	     43.90964699086879363676	      1.71969166883961976922	   -174.81714051162393275263	      0.38107073266221325181	      0.78785923329351847944	     -0.62615434078680010099	     76.68023684670220063708	    -13.38981288316669449046	     -9.65587030301562165846	     33.64431171740484671773	      0.58720401403602262569	      2.66025197176382155462	      0.00000000000000000000	      0.00000000000000000000	     75.58251413144334662775	     -4.50978354231092559701	     -4.48430607375062884046	     27.08625203796468028372	      0.47274428008750779551	     -5.17911971622727573816	      0.00000000000000000000	      0.00000000000000000000	    -31.06727472814399959589	      5.14541671440306558338	     -0.66802143059540763925	     61.68251548170711373587	    -10.26655463505106702371	     52.82483892167915229265	      0.81494235697898498305	     85.39949945886746718315	      0.00000000000000000000	      0.00000000000000000000	     53.84983315599971831489	     -2.43821340278654119516	     40.36282018358680545589	      0.63778069098095502287	      2.78912924001270479124	      0.00000000000000000000	      0.00000000000000000000
      5.36500000000000021316	     43.86577225555726045059	      1.42233504875119209920	   -174.79500272307987529530	      0.38112684737496105303	      0.78863667595057151960	     -0.62583015372810535393	     76.57516687096209295760	    -13.56240930842333902717	     -9.54954814992630396375	     33.43122077779600687109	      0.58348487553367989200	      2.47358697841614905144	      0.00000000000000000000	      0.00000000000000000000	     75.30500917831273000047	     -4.40346000335065301812	     -5.05067132085422620946	     26.79271991485691373214	      0.46762117807890796195	     -5.39058031581007046640	      0.00000000000000000000	      0.00000000000000000000	    -30.84074459694500447426	      4.90151379823676158765	     -0.87629084164733217488	     61.38898864428454515973	    -10.28802795522803847916	     53.22975238361067340520	      0.81612629564030858553	     85.32209912441543053774	      0.00000000000000000000	      0.00000000000000000000	     53.43498507215274884175	     -2.49772368826834467725	     41.36786461191734787235	      0.63457701475123184931	      2.81328696040190040506	      0.00000000000000000000	      0.00000000000000000000
      5.37000000000000010658	     43.66701549003496296564	      1.86062047536906605139	   -174.89471942525298686633	      0.38085686233261611955	      0.78954078810576466818	     -0.62652082742146331107	     76.04562989285653884508	    -13.22963661190971329518	    -10.08286320908931443796	     33.03801976411754992569	      0.57662222322281164733	      2.31265272510030550634	      0.00000000000000000000	      0.00000000000000000000	     75.08342692940404106139	     -4.63064067136861545748	     -4.37165397320431736716	     26.58973674919333163302	      0.46407845351195736727	     -5.44698258896629639025	      0.00000000000000000000	      0.00000000000000000000	    -30.76572917421097841384	      5.24754053786639129697	     -0.55604304669523763049	     61.13031108695842164025	    -10.33337341447612445222	     53.18263317515446431116	      0.81051530567310126063	     85.23261417858131494540	      0.00000000000000000000	      0.00000000000000000000	     53.19967543560769485111	     -2.45357617163450614228	     41.38413792153425418974	      0.63245437777888646735	      2.76142544958104885211	      0.00000000000000000000	      0.00000000000000000000
      5.37500000000000000000	     43.49403255210513918882	      2.11639808439914611782	   -174.79701309754958060694	      0.38067898753870621498	      0.79038042919603801462	     -0.62651627033780221687	     75.62393340418094567212	    -13.25141166122100067071	    -10.64072869619882588665	     32.77236795688872206256	      0.57198572452279528022	      2.21413879429693993828	      0.00000000000000000000	      0.00000000000000000000	     74.83908857569392125697	     -4.60070486799357603047	     -3.97248700673921151250	     26.35213758407036621634	      0.45993156578057192707	     -5.59104674445674731942	      0.00000000000000000000	      0.00000000000000000000	    -30.63229900679940342911	      5.54993420753173261062	     -0.55653222441872729487	     60.85863990479006702117	    -10.33953237486141318868	     53.60057957102021219953	      0.80824685668898643698	     85.25737500617027819771	      0.00000000000000000000	      0.00000000000000000000	     52.84955214754540975264	     -2.46155346590311596700	     41.85288669450854115439	      0.63015847853891793218	      2.69281237375249871135	      0.00000000000000000000	      0.00000000000000000000
      5.37999999999999989342	     43.30120523038044666464	      2.16863996323610885852	   -174.96965839882011550799	      0.38044552138433251898	      0.79127093087520850023	     -0.62698907660640879058	     75.22438562111696569445	    -13.01494862151751519264	    -10.79741735821824022423	     32.42616151792014989041	      0.56594328227118895214	      2.04620121234625917950	      0.00000000000000000000	      0.00000000000000000000	     74.53009075988062193119	     -4.82939453213646352481	     -4.02595717306259626156	     26.18832213684942544774	      0.45707244686093950747	     -5.65182117120720839409	      0.00000000000000000000	      0.00000000000000000000	    -30.55716525022691243407	      5.51246992641867539220	     -0.38012299219890566260	     60.58774685910452717508	    -10.36341980308324473015	     53.66165164077734317516	      0.80919420225277693959	     85.37262418231527760781	      0.00000000000000000000	      0.00000000000000000000	     52.51938941948699834938	     -2.48183852384596814744	     42.53728450586873321981	      0.62508458008076361878	      2.74625235083037555484	      0.00000000000000000000	      0.00000000000000000000
      5.38499999999999978684	     43.19549715711563209197	      2.14665375466189045639	   -175.13672420312184385693	      0.38037617242145149721	      0.79202877293424878147	     -0.62738356908268533285	     74.94774865859986334726	    -12.81651841399299129876	    -10.85386905627707498923	     32.08545244849560162947	      0.55999678721832457651	      1.89987182514849450854	      0.00000000000000000000	      0.00000000000000000000	     74.29503035802288479772	     -4.97943355553829203330	     -4.04593866423545645006	     25.99742742486006719105	      0.45374070561207890950	     -5.72372827953977125759	      0.00000000000000000000	      0.00000000000000000000	    -30.36610687922192752808	      5.39806506192472124184	     -0.25706705919577976793	     60.26913376791567600321	    -10.37593668150025472130	     53.73044267896329273526	      0.80248507304758909253	     85.23308469427612976688	      0.00000000000000000000	      0.00000000000000000000	     52.09058313956804653344	     -2.52350051345031278771	     43.67599116769662970228	      0.62035816775456598116	      2.71966666839243842446	      0.00000000000000000000	      0.00000000000000000000
      5.38999999999999968026	     43.03098529276750383588	      2.28666154888356576436	   -175.16239823650866469507	      0.38021305971779972843	      0.79288702100386498905	     -0.62752877497943937435	     74.55114177106514716797	    -12.71108830631313857396	    -11.13158956044351199921	     31.76699871305945777067	      0.55443872101968894039	      1.74679061939187829644	      0.00000000000000000000	      0.00000000000000000000	     74.04077953957157376408	     -5.05394909973548500659	     -3.88553482658207327560	     25.79985364205551334749	      0.45029239258651926336	     -5.83913804607743891495	      0.00000000000000000000	      0.00000000000000000000	    -30.23168003781053414514	      5.53871732960000251467	     -0.17095557837881206198	     60.00358870525635524018	    -10.41522948611983068190	     53.88712176632454742276	      0.80238737697716766561	     85.27499209534799717858	      0.00000000000000000000	      0.00000000000000000000	     51.77844772938794193351	     -2.51597091843108833231	     44.06315404317637529630	      0.61880620526882967880	      2.67919728172419802092	      0.00000000000000000000	      0.00000000000000000000
      5.39499999999999957367	     42.89424286233855099226	      2.46307740331034530357	   -175.20300276412143603011	      0.38009303611266198608	      0.79371681322556608684	     -0.62779358697713416593	     74.18955148397365917390	    -12.57226185413633778865	    -11.45667015875861061147	     31.44175159438952604773	      0.54876208791627389960	      1.61653803991042877009	      0.00000000000000000000	      0.00000000000000000000	     73.83267378728544372279	     -5.15368590807415927202	     -3.66103512605828518289	     25.60959875729569645841	      0.44697181842945810093	     -5.96642007634381954517	      0.00000000000000000000	      0.00000000000000000000	    -30.05963850957025229604	      5.68549293877693795451	     -0.05582485593734509005	     59.69815901636760457905	    -10.44381519009781200680	     54.01135555324722048454	      0.80164645250747346150	     85.24941734806100157584	      0.00000000000000000000	      0.00000000000000000000	     51.45064952353659748496	     -2.52228201883895009061	     44.70029415642146375376	      0.61475654164055815176	      2.67828606542373792720	      0.00000000000000000000	      0.00000000000000000000
